# File created by Blade
# Date/Time:  Tue Apr 07 20:17:56 2015
# Frame Rate: 120.000 fps
#------------------------------------------------------
:FULLY-SPECIFIED
:DEGREES
838
root 6.898591 33.963769 -9.829007 14.605260 -21.995096 -38.514102
Spine 11.205867 18.288282 24.758558
Head -6.269194 -3.544928 15.999301
LeftShoulder -20.448340 41.909985 18.059338
LeftArm 54.562614 -47.926657 -81.679115
LeftForeArm -0.965891 -0.000000 17.430265
LeftHand 13.117790 -0.000000 10.656170
LeftHandThumb1 -26.253704 0.000000 33.147579
RightShoulder 3.737713 21.915378 -18.939763
RightArm 29.280064 32.022711 80.400083
RightForeArm 39.741453 -0.000000 7.975238
RightHand 8.563514 0.000000 -8.051614
RightHandThumb1 -24.326973 -0.000000 -32.862282
LeftUpLeg -8.781456 8.014460 30.039968
LeftLeg 23.451737 -0.000000 -0.000000
LeftFoot -17.475259 12.938309 -23.062475
LeftToeBase -4.292023 -0.000000 0.000000
RightUpLeg -106.870674 -43.491140 9.688878
RightLeg 108.112780 -0.000000 -0.000000
RightFoot 41.971269 -5.561337 0.940877
RightToeBase 36.833823 -0.000000 -0.000000
839
root 6.891587 34.000833 -9.816122 14.625955 -21.752399 -38.553793
Spine 10.995903 18.115196 24.590451
Head -6.090776 -3.576937 16.210612
LeftShoulder -20.444302 41.927353 18.045217
LeftArm 54.273509 -47.876810 -81.485360
LeftForeArm -0.883013 -0.000000 17.401347
LeftHand 13.092765 0.000000 10.881882
LeftHandThumb1 -26.253704 0.000000 33.147579
RightShoulder 3.454558 21.734392 -19.152411
RightArm 28.755752 31.749078 78.232847
RightForeArm 35.576324 -0.000000 8.071317
RightHand 7.794678 -0.000000 -4.902605
RightHandThumb1 -24.326973 -0.000000 -32.862282
LeftUpLeg -8.828550 8.282437 30.179401
LeftLeg 23.289146 -0.000000 -0.000000
LeftFoot -17.245795 12.504851 -23.465184
LeftToeBase -3.963748 -0.000000 0.000000
RightUpLeg -106.495702 -43.845530 9.353012
RightLeg 107.663514 -0.000000 -0.000000
RightFoot 41.916629 -5.370476 0.872559
RightToeBase 37.109699 -0.000000 -0.000000
840
root 6.885418 34.035483 -9.805616 14.706344 -21.483353 -38.575582
Spine 10.699242 17.968810 24.397487
Head -5.899063 -3.659043 16.400104
LeftShoulder -20.467154 42.073317 17.958517
LeftArm 54.282923 -47.872066 -81.500788
LeftForeArm -0.827257 -0.000000 17.314340
LeftHand 13.059144 0.000000 11.037493
LeftHandThumb1 -26.253704 0.000000 33.147579
RightShoulder 3.109721 21.420646 -19.370059
RightArm 28.257452 31.235711 75.917670
RightForeArm 31.667622 -0.000000 8.164268
RightHand 7.087463 -0.000000 -1.876320
RightHandThumb1 -24.326973 -0.000000 -32.862282
LeftUpLeg -8.949162 8.493028 30.281711
LeftLeg 23.117645 -0.000000 -0.000000
LeftFoot -17.023536 12.165651 -23.827254
LeftToeBase -3.606009 -0.000000 0.000000
RightUpLeg -106.211498 -44.178706 9.060921
RightLeg 107.210081 -0.000000 -0.000000
RightFoot 41.879537 -5.189733 0.699836
RightToeBase 37.127238 -0.000000 -0.000000
841
root 6.881595 34.066598 -9.798878 14.827838 -21.228726 -38.580306
Spine 10.351663 17.794284 24.163144
Head -5.669390 -3.653011 16.537745
LeftShoulder -20.503049 42.218383 17.878583
LeftArm 54.241157 -47.881381 -81.519086
LeftForeArm -0.808864 -0.000000 17.202141
LeftHand 13.090713 0.000000 11.209513
LeftHandThumb1 -26.253704 0.000000 33.147579
RightShoulder 2.878615 21.177410 -19.523089
RightArm 27.470453 30.396305 73.255427
RightForeArm 28.537430 -0.000000 8.363003
RightHand 6.186827 -0.000000 0.764245
RightHandThumb1 -24.326973 -0.000000 -32.862282
LeftUpLeg -9.124772 8.722449 30.366051
LeftLeg 22.971264 -0.000000 -0.000000
LeftFoot -16.821428 11.744065 -24.288804
LeftToeBase -3.301651 -0.000000 0.000000
RightUpLeg -105.903256 -44.433156 8.651845
RightLeg 106.742760 -0.000000 -0.000000
RightFoot 41.878315 -4.979399 0.639401
RightToeBase 37.089930 -0.000000 -0.000000
842
root 6.875257 34.095558 -9.792949 14.958924 -20.954837 -38.659939
Spine 10.029488 17.605465 24.036666
Head -5.442037 -3.694111 16.614744
LeftShoulder -20.515316 42.336515 17.817725
LeftArm 54.164709 -47.881051 -81.550581
LeftForeArm -0.818674 -0.000000 17.100751
LeftHand 13.042685 0.000000 11.334139
LeftHandThumb1 -26.253704 0.000000 33.147579
RightShoulder 2.616690 20.801844 -19.708934
RightArm 26.858249 29.451569 70.607413
RightForeArm 25.780059 -0.000000 8.402237
RightHand 5.278931 0.000000 3.357868
RightHandThumb1 -24.326973 -0.000000 -32.862282
LeftUpLeg -9.271955 8.810774 30.482339
LeftLeg 22.772606 -0.000000 -0.000000
LeftFoot -16.730027 11.694068 -24.578486
LeftToeBase -2.990356 -0.000000 0.000000
RightUpLeg -105.554734 -44.693709 8.267333
RightLeg 106.259661 -0.000000 -0.000000
RightFoot 41.920058 -4.762397 0.640143
RightToeBase 37.172703 -0.000000 -0.000000
